# xmcd CD database file
#
# Track frame offsets:
#	150
#	12039
#	24876
#	37511
#	50241
#	62329
#	72207
#	83184
#	94280
#	104736
#	115174
#	127078
#	139245
#	151396
#	162661
#	174704
#	185059
#	194496
#	205004
#	218373
#
# Disc length: 3036 seconds
#
# Revision: 0
# Processed by: cddbd v1.5.2PL0 Copyright (c) Steve Scherf et al.
# Submitted via: CDex 1.70beta2
#
DISCID=190bda14
DTITLE=Hank Snow - I'm Moving On CD 1
DYEAR=1900
DGENRE=Country
TTITLE0=Marriage Vow
TTITLE1=I'm Moving On
TTITLE2=The Golden Rocket
TTITLE3=The Rhumba Boogie
TTITLE4=Bluebird Island
TTITLE5=Down The Trail Of Archin' Hearts
TTITLE6=Unwanted Sign Upon Your Heart
TTITLE7=Music Makin' Mama From Memphis
TTITLE8=The Gold Rush is Over
TTITLE9=Lady's Man
TTITLE10=Married By The Bible - Divorced By The Law
TTITLE11=I Went To Your Wedding
TTITLE12=The Gal Who Invented Kissin'
TTITLE13=There's A Fool Such As I
TTITLE14=Honeymoon On A Rocketship
TTITLE15=Spanish Fireball
TTITLE16=For Now And Always
TTITLE17=When Mexican Joe Met Jole Blon
TTITLE18=I Don't Hurt Anymore
TTITLE19=That Crazy Mambo Thin
EXTD=
EXTT0=
EXTT1=
EXTT2=
EXTT3=
EXTT4=
EXTT5=
EXTT6=
EXTT7=
EXTT8=
EXTT9=
EXTT10=
EXTT11=
EXTT12=
EXTT13=
EXTT14=
EXTT15=
EXTT16=
EXTT17=
EXTT18=
EXTT19=
PLAYORDER=
